<?xml version="1.0" standalone="no"?>
<!DOCTYPE svg PUBLIC "-//W3C//DTD SVG 20010904//EN"
 "http://www.w3.org/TR/2001/REC-SVG-20010904/DTD/svg10.dtd">
<svg version="1.0" xmlns="http://www.w3.org/2000/svg"
 width="300.000000pt" height="300.000000pt" viewBox="0 0 300.000000 300.000000"
 preserveAspectRatio="xMidYMid meet">
<metadata>
Created by potrace 1.10, written by Peter Selinger 2001-2011
</metadata>
<g transform="translate(0.000000,300.000000) scale(0.100000,-0.100000)"
fill="#000000" stroke="none">
<path d="M1358 2993 c12 -2 32 -2 45 0 12 2 2 4 -23 4 -25 0 -35 -2 -22 -4z"/>
<path d="M1598 2993 c12 -2 32 -2 45 0 12 2 2 4 -23 4 -25 0 -35 -2 -22 -4z"/>
<path d="M1060 2935 c-19 -7 -28 -13 -20 -13 8 0 31 6 50 13 19 7 28 13 20 13
-8 0 -31 -6 -50 -13z"/>
<path d="M1910 2935 c19 -7 42 -13 50 -13 8 0 -1 6 -20 13 -19 7 -42 13 -50
13 -8 0 1 -6 20 -13z"/>
<path d="M2050 2885 c14 -8 30 -14 35 -14 6 0 -1 6 -15 14 -14 8 -29 14 -35
14 -5 0 1 -6 15 -14z"/>
<path d="M858 2854 c-39 -21 -35 -28 5 -8 37 19 44 24 31 24 -5 -1 -21 -8 -36
-16z"/>
<path d="M2101 2866 c10 -9 69 -36 69 -32 0 6 -55 36 -66 36 -4 0 -5 -2 -3 -4z"/>
<path d="M2200 2817 c0 -2 27 -21 59 -41 74 -46 155 -110 246 -195 61 -56 59
-54 -10 14 -81 81 -187 165 -256 205 -22 12 -39 19 -39 17z"/>
<path d="M705 2763 c-67 -45 -177 -138 -235 -199 -39 -41 -30 -35 30 21 75 71
152 133 230 187 14 9 23 17 20 17 -3 1 -23 -11 -45 -26z"/>
<path d="M377 2458 c-48 -61 -112 -158 -104 -158 2 0 21 26 42 58 21 31 53 76
72 100 19 23 32 42 29 42 -2 0 -20 -19 -39 -42z"/>
<path d="M2625 2443 c27 -35 50 -63 52 -63 7 0 -60 89 -80 107 -11 10 2 -10
28 -44z"/>
<path d="M1575 2383 c-60 -104 -157 -206 -240 -252 -38 -21 -98 -72 -165 -140
-86 -87 -120 -115 -187 -149 -44 -23 -88 -42 -96 -42 -28 0 -67 -40 -67 -70 0
-49 128 -170 179 -170 6 0 4 17 -4 41 -24 67 -21 71 31 44 26 -14 61 -25 77
-25 l31 0 -27 28 c-15 15 -27 36 -27 45 0 16 2 16 23 3 22 -15 107 -38 107
-29 0 3 -9 16 -20 30 -11 14 -20 35 -20 46 0 19 4 20 83 13 132 -11 159 -24
95 -45 -18 -6 -55 -29 -83 -51 -80 -63 -122 -83 -164 -76 l-36 7 28 -25 c15
-14 27 -28 27 -31 0 -9 -96 -5 -129 6 -18 6 -34 9 -37 7 -9 -9 56 -88 85 -103
17 -8 49 -15 72 -15 37 0 47 5 78 41 117 134 169 164 311 178 l75 8 41 -42
c54 -56 72 -120 50 -183 -21 -58 -71 -126 -115 -155 -74 -49 -296 -114 -566
-166 -183 -36 -215 -47 -295 -101 -79 -54 -143 -128 -190 -222 -62 -125 -54
-146 41 -99 113 56 184 65 439 55 124 -5 271 -8 327 -7 178 3 329 59 432 161
88 87 82 52 -14 -93 -36 -53 -65 -99 -65 -101 0 -14 44 1 81 27 105 74 224
253 270 407 6 23 16 42 21 42 23 0 -11 -190 -47 -261 -11 -20 -13 -35 -7 -41
13 -13 94 97 137 186 90 188 83 396 -21 553 -19 29 -34 55 -34 58 0 32 130
-90 177 -166 20 -33 41 -58 47 -56 27 10 -11 160 -59 234 -34 52 -64 74 -228
170 -42 24 -75 48 -72 53 3 4 60 -10 127 -33 110 -36 134 -41 223 -41 90 -1
106 2 163 28 86 40 81 52 -21 53 -98 1 -176 19 -307 72 -81 33 -153 54 -257
77 -29 6 -30 24 -2 24 11 0 75 -11 141 -25 190 -39 297 -31 420 31 85 43 138
102 162 182 10 32 -8 28 -58 -13 -80 -65 -197 -105 -313 -105 -39 0 -124 9
-190 21 -65 11 -166 21 -224 22 l-106 2 -6 95 c-6 105 -21 170 -40 170 -7 -1
-34 -40 -62 -87z m59 -29 c3 -9 6 -42 6 -74 0 -47 5 -64 23 -84 20 -23 31 -25
137 -31 63 -4 117 -8 120 -10 3 -2 30 -6 60 -10 30 -4 77 -11 104 -16 77 -14
185 -10 266 10 41 11 77 17 79 15 2 -2 -27 -18 -65 -36 -95 -44 -191 -49 -365
-17 -134 24 -171 21 -185 -16 -10 -26 15 -44 90 -66 39 -11 116 -38 171 -59
55 -21 126 -46 158 -56 31 -10 57 -22 57 -27 0 -15 -106 2 -214 34 -109 32
-136 35 -154 17 -33 -33 14 -85 139 -153 69 -39 149 -114 149 -141 0 -9 -17
-1 -45 20 -59 46 -82 52 -106 30 -25 -23 -24 -35 10 -97 55 -96 66 -142 65
-262 0 -90 -4 -120 -23 -168 -24 -62 -32 -66 -36 -17 -3 39 -23 62 -49 58 -16
-2 -37 -35 -86 -134 -55 -111 -107 -194 -122 -194 -2 0 -2 17 0 37 3 27 0 40
-14 50 -25 18 -27 18 -85 -32 -122 -104 -312 -163 -484 -151 -44 3 -166 9
-271 12 -203 7 -279 0 -382 -38 -29 -11 -56 -18 -58 -15 -8 8 35 88 79 145 22
30 71 73 112 101 76 51 105 60 316 100 159 31 406 98 474 130 81 37 128 81
170 156 60 106 44 209 -45 289 l-43 39 -81 -7 c-45 -3 -97 -9 -116 -12 l-35
-7 23 26 c51 54 -1 96 -123 100 -76 2 -78 2 -104 -30 -18 -22 -36 -33 -53 -33
-15 0 -31 -9 -40 -22 -11 -16 -24 -22 -46 -20 -22 2 -36 -4 -50 -23 -25 -31
-44 -25 -77 23 -18 27 -22 40 -14 54 5 10 16 18 24 18 7 0 51 19 97 42 68 34
102 61 191 149 62 62 132 122 165 140 66 37 193 162 237 231 32 52 40 56 49
32z m-434 -800 c0 -3 -8 -19 -17 -34 -20 -34 -52 -53 -83 -48 -20 3 -16 8 30
46 49 39 70 50 70 36z"/>
<path d="M1282 2018 c-55 -56 -64 -84 -34 -111 24 -22 44 -21 92 3 67 34 87
85 54 135 -25 38 -54 31 -112 -27z m95 6 c10 -26 -14 -62 -56 -84 -77 -39 -82
-17 -14 52 51 52 60 56 70 32z"/>
<path d="M2689 2355 c5 -11 17 -29 26 -40 16 -20 16 -20 6 0 -5 11 -17 29 -26
40 -16 20 -16 20 -6 0z"/>
<path d="M219 2209 c-22 -45 -39 -83 -37 -85 2 -2 23 35 46 81 23 47 40 85 37
85 -3 0 -23 -36 -46 -81z"/>
<path d="M2772 2205 c23 -46 44 -83 46 -81 4 5 -76 166 -83 166 -3 0 14 -38
37 -85z"/>
<path d="M136 2004 c-4 -14 -5 -28 -3 -31 3 -2 8 8 11 23 4 14 5 28 3 31 -3 2
-8 -8 -11 -23z"/>
<path d="M2851 2020 c0 -8 4 -24 9 -35 5 -13 9 -14 9 -5 0 8 -4 24 -9 35 -5
13 -9 14 -9 5z"/>
<path d="M106 1894 c-4 -20 -5 -38 -3 -40 3 -3 8 11 11 32 4 20 5 38 3 40 -3
3 -8 -11 -11 -32z"/>
<path d="M2882 1915 c0 -11 4 -31 8 -45 6 -20 8 -21 8 -5 0 11 -4 31 -8 45 -6
20 -8 21 -8 5z"/>
<path d="M83 1740 c0 -25 2 -35 4 -22 2 12 2 32 0 45 -2 12 -4 2 -4 -23z"/>
<path d="M2913 1740 c0 -25 2 -35 4 -22 2 12 2 32 0 45 -2 12 -4 2 -4 -23z"/>
<path d="M2924 1575 c0 -60 1 -84 3 -52 2 32 2 81 0 110 -2 29 -3 3 -3 -58z"/>
<path d="M74 1570 c0 -58 1 -81 3 -52 2 28 2 76 0 105 -2 28 -3 5 -3 -53z"/>
<path d="M82 1400 c0 -19 2 -27 5 -17 2 9 2 25 0 35 -3 9 -5 1 -5 -18z"/>
<path d="M2912 1400 c0 -19 2 -27 5 -17 2 9 2 25 0 35 -3 9 -5 1 -5 -18z"/>
<path d="M102 1285 c0 -11 3 -29 8 -40 11 -25 11 1 0 35 -6 20 -8 21 -8 5z"/>
<path d="M2886 1264 c-4 -20 -5 -38 -3 -40 3 -3 8 11 11 32 4 20 5 38 3 40 -3
3 -8 -11 -11 -32z"/>
<path d="M131 1170 c0 -8 4 -24 9 -35 5 -13 9 -14 9 -5 0 8 -4 24 -9 35 -5 13
-9 14 -9 5z"/>
<path d="M2856 1154 c-4 -14 -5 -28 -3 -31 3 -2 8 8 11 23 4 14 5 28 3 31 -3
2 -8 -8 -11 -23z"/>
<path d="M180 1026 c0 -10 80 -166 85 -166 5 0 -72 159 -81 169 -2 2 -4 1 -4
-3z"/>
<path d="M2772 945 c-23 -47 -40 -85 -37 -85 7 0 87 161 83 166 -2 2 -23 -35
-46 -81z"/>
<path d="M285 823 c42 -66 105 -150 121 -164 10 -7 2 6 -17 31 -20 25 -53 71
-74 103 -21 31 -40 57 -43 57 -2 0 4 -12 13 -27z"/>
<path d="M2714 838 c-4 -7 -14 -24 -22 -38 -14 -24 -13 -24 3 -5 20 24 37 55
31 55 -3 0 -8 -6 -12 -12z"/>
<path d="M2625 708 c-26 -35 -39 -55 -28 -45 20 18 87 107 80 107 -2 0 -25
-28 -52 -62z"/>
<path d="M480 577 c36 -37 92 -88 125 -113 44 -34 48 -36 15 -7 -25 21 -81 72
-125 113 l-80 75 65 -68z"/>
<path d="M2500 567 c-41 -40 -95 -89 -120 -110 -33 -28 -29 -26 15 7 54 41
196 176 185 176 -3 0 -39 -33 -80 -73z"/>
<path d="M677 409 c12 -15 73 -53 73 -46 0 2 -19 17 -42 32 -24 16 -38 22 -31
14z"/>
<path d="M2266 379 c-73 -48 -84 -59 -30 -29 39 21 105 70 94 69 -3 0 -32 -18
-64 -40z"/>
<path d="M830 315 c0 -7 61 -37 66 -33 2 3 -12 12 -31 21 -19 9 -35 15 -35 12z"/>
<path d="M2130 300 c-19 -11 -31 -19 -27 -20 11 0 67 29 67 35 0 7 -1 7 -40
-15z"/>
<path d="M1060 215 c19 -7 42 -13 50 -13 8 0 -1 6 -20 13 -19 7 -42 13 -50 13
-8 0 1 -6 20 -13z"/>
<path d="M1910 215 c-19 -7 -28 -13 -20 -13 8 0 31 6 50 13 19 7 28 13 20 13
-8 0 -31 -6 -50 -13z"/>
<path d="M1283 163 c9 -2 25 -2 35 0 9 3 1 5 -18 5 -19 0 -27 -2 -17 -5z"/>
<path d="M1683 163 c9 -2 25 -2 35 0 9 3 1 5 -18 5 -19 0 -27 -2 -17 -5z"/>
<path d="M1358 153 c12 -2 32 -2 45 0 12 2 2 4 -23 4 -25 0 -35 -2 -22 -4z"/>
<path d="M1598 153 c12 -2 32 -2 45 0 12 2 2 4 -23 4 -25 0 -35 -2 -22 -4z"/>
</g>
</svg>
