<svg version="1.1" id="Layer_1" xmlns="http://www.w3.org/2000/svg" xmlns:xlink="http://www.w3.org/1999/xlink" x="0px" y="0px"
	 width="100%" viewBox="0 0 1024 1024" enable-background="new 0 0 1024 1024" xml:space="preserve">
<path fill="#000000" opacity="1.000000" stroke="none" 
	d="
M477.531342,1.000000 
	C477.050140,2.125227 475.773987,2.306735 474.395081,2.344943 
	C456.774506,2.833207 439.469086,5.987278 422.301697,9.480846 
	C392.559387,15.533425 363.415070,23.532387 334.992340,34.663712 
	C306.849457,45.685444 280.078552,59.135880 254.558884,74.998978 
	C235.866013,86.618515 218.110840,99.734695 201.170105,113.935089 
	C186.897537,125.898941 173.023560,138.259674 160.377472,151.889709 
	C148.324066,164.880981 136.882629,178.396103 126.099327,192.538116 
	C114.906448,207.217285 104.432983,222.312378 95.078041,238.159866 
	C85.030861,255.179977 75.976311,272.718109 67.858360,290.801453 
	C60.975716,306.133087 55.662830,321.957977 50.066319,337.724304 
	C42.112442,360.131714 37.010937,383.218109 33.335594,406.666534 
	C30.333588,425.819122 27.820154,444.977997 27.078039,464.412689 
	C26.755033,472.871582 26.303663,481.344849 26.421362,489.798309 
	C26.716764,511.014893 28.098263,532.120789 31.162659,553.193542 
	C35.202190,580.971741 40.663445,608.321838 49.294121,635.061523 
	C57.829967,661.507446 68.205383,687.169128 81.039307,711.802368 
	C96.332726,741.156372 114.761055,768.453125 135.402481,794.325806 
	C142.850998,803.661926 150.625305,812.772217 158.832565,821.315125 
	C172.794556,835.848022 187.461060,849.696777 203.221848,862.461426 
	C217.560303,874.074097 232.289932,885.064148 247.563950,895.296326 
	C268.549469,909.354614 290.751221,921.453369 313.807434,931.704468 
	C349.634888,947.633972 387.075806,958.792847 425.514069,966.400085 
	C440.277588,969.321899 455.307678,970.584595 470.341949,971.860168 
	C490.269531,973.550964 510.216461,974.359924 530.119385,973.453247 
	C552.419250,972.437439 574.716003,970.974487 596.804016,966.907837 
	C620.017883,962.633850 642.876709,956.914429 665.188660,949.555298 
	C690.884399,941.080261 715.893616,930.722534 739.853027,917.789673 
	C760.785095,906.490723 780.846924,894.023499 800.101013,880.108582 
	C815.569580,868.929565 830.093933,856.690063 844.250305,843.903992 
	C855.103394,834.101440 865.166260,823.552551 874.974426,812.809692 
	C891.853149,794.322632 906.664490,774.181702 920.519958,753.298828 
	C940.720825,722.852112 957.059448,690.481445 969.445679,656.177612 
	C974.056030,643.409058 978.875122,630.652649 982.208130,617.432739 
	C982.753357,615.270142 983.221191,612.969360 985.538147,610.512268 
	C986.751160,617.419617 986.575989,623.779724 985.536072,629.766235 
	C983.565308,641.111328 984.659546,652.427307 985.302246,663.635193 
	C985.744690,671.351685 989.608398,677.695984 997.945251,681.768555 
	C1005.721802,685.567322 1012.182983,688.115784 1019.869751,682.884888 
	C1021.193970,681.983826 1023.205078,682.585938 1024.766968,681.173462 
	C1025.000000,769.687561 1025.000000,858.375122 1024.699951,947.691650 
	C1022.222900,952.885681 1018.879700,956.314270 1014.833435,959.383301 
	C1005.383179,966.551147 995.320251,973.436096 994.803101,987.138733 
	C994.766724,988.101990 994.185242,989.031921 993.985657,990.003662 
	C991.240601,1003.371887 968.457703,1010.517822 957.972046,1007.423340 
	C951.262024,1005.443115 944.663330,1003.180786 938.643921,999.463867 
	C933.922119,996.548096 928.979675,996.235107 923.352051,996.983032 
	C910.019470,998.755127 898.545837,1005.535400 886.153870,1009.772461 
	C881.377075,1011.405701 877.476807,1015.300232 874.105652,1019.232605 
	C872.807373,1020.746948 871.232727,1022.680481 873.000000,1025.000000 
	C588.312439,1025.000000 303.624878,1025.000000 18.506779,1024.729370 
	C17.508167,1023.132507 16.333603,1021.737549 16.474703,1020.491638 
	C17.165470,1014.392090 12.894655,1014.850220 9.435675,1015.441650 
	C6.506617,1015.942566 3.803248,1017.763367 0.999999,1019.000000 
	C1.000000,689.979126 1.000000,360.958221 1.216674,31.699753 
	C6.472967,35.555603 12.953634,36.550735 18.601711,39.346722 
	C19.160450,39.623322 20.571751,38.878021 21.190022,38.228695 
	C30.092434,28.879148 41.629780,27.133598 53.674320,26.916924 
	C57.424210,26.849464 60.987148,25.923138 64.281326,24.405592 
	C66.780174,23.254433 69.945457,20.996212 67.257317,17.944317 
	C63.042683,13.159371 63.424911,8.080203 64.920692,2.670493 
	C63.409885,2.026783 62.204941,1.513391 61.000000,1.000000 
	C199.687561,1.000000 338.375122,1.000000 477.531342,1.000000 
z"/>
<path fill="#000000" opacity="1.000000" stroke="none" 
	d="
M1025.000000,459.531342 
	C1021.741333,458.969055 1019.334961,460.563812 1017.686890,462.977997 
	C1013.900085,468.525269 1008.043762,472.212341 1004.525024,477.965454 
	C1003.997925,478.827301 1003.313538,479.678894 1002.150635,479.437134 
	C1000.547607,479.103912 1000.214661,477.728394 1000.058777,476.382965 
	C999.562683,472.100800 998.803894,467.817230 998.726929,463.523773 
	C998.363403,443.253937 995.124084,423.358917 991.984741,403.382172 
	C988.393921,380.531860 982.925537,358.251709 975.561829,336.376831 
	C969.158325,317.354401 961.993164,298.678497 953.487732,280.444519 
	C943.917114,259.927155 932.863403,240.316757 920.610474,221.353851 
	C907.818298,201.556320 893.473145,182.865448 877.894226,165.214844 
	C864.156311,149.650009 849.548584,134.914612 833.687622,121.379715 
	C822.691956,111.996529 811.517761,102.857666 799.913147,94.308380 
	C781.196777,80.519783 761.623779,67.885231 740.996338,57.189339 
	C710.319946,41.282784 678.456665,28.029741 644.982056,19.137522 
	C624.351257,13.657154 603.600891,8.504834 582.417419,5.538164 
	C571.453369,4.002684 560.413208,3.010076 549.203735,1.386103 
	C686.020874,1.000000 823.041809,1.000000 960.344849,1.250310 
	C958.837952,5.418056 962.047241,9.074600 961.157104,13.009914 
	C959.411926,20.725714 963.952698,25.230124 969.512573,29.452139 
	C979.540710,37.067272 989.646667,44.607632 996.404480,55.687477 
	C998.532043,59.175854 1001.760803,61.992760 1004.486084,65.116493 
	C1006.373474,67.279846 1008.603699,67.963081 1011.569580,67.728455 
	C1016.157410,67.365532 1020.830078,67.455070 1025.000000,70.000000 
	C1025.000000,199.687561 1025.000000,329.375122 1025.000000,459.531342 
z"/>
<path fill="#000000" opacity="1.000000" stroke="none" 
	d="
M760.708923,287.870880 
	C790.280823,284.280640 818.374756,277.386414 843.793579,262.077209 
	C851.776611,257.269196 859.431580,251.925827 866.106323,245.326889 
	C866.698425,244.741470 867.251770,244.101715 867.909363,243.600357 
	C870.967712,241.268677 873.781982,236.883911 878.159424,239.703552 
	C882.279419,242.357300 880.622803,247.108566 879.524597,250.774185 
	C873.505371,270.865692 862.007446,287.145508 844.530518,298.903595 
	C833.616943,306.246033 822.334412,313.110168 810.153076,318.092499 
	C801.124390,321.785370 791.583923,324.173584 782.095459,326.600891 
	C760.432007,332.142853 738.451782,331.033173 716.677002,328.757935 
	C702.075684,327.232269 687.788452,322.844452 673.298584,320.060547 
	C662.048157,317.898956 650.714722,316.152771 639.389160,314.410583 
	C636.454651,313.959137 633.414490,314.239502 629.645386,315.895569 
	C635.012024,318.525818 640.238831,319.204681 645.183289,320.353302 
	C659.241333,323.619141 673.097473,327.527527 686.916748,331.676605 
	C706.369629,337.517029 724.306763,347.129547 743.428833,353.760498 
	C756.586670,358.323212 769.913696,362.153687 783.484619,365.382843 
	C800.975708,369.544800 818.606201,370.391754 836.416321,370.039429 
	C840.251709,369.963562 844.046875,369.759613 847.804688,368.775909 
	C850.901917,367.965057 853.489197,369.156494 854.867004,372.058167 
	C856.251404,374.973755 854.797607,377.107941 852.437073,378.901703 
	C841.413391,387.278625 828.853027,392.282562 815.754761,396.420532 
	C794.324158,403.190887 772.605164,401.610840 750.990662,398.739044 
	C739.209412,397.173798 727.603088,393.980408 716.210449,390.258148 
	C699.955383,384.947174 683.602112,379.936920 667.287781,374.807739 
	C666.320068,374.503510 665.325073,374.280731 664.435364,375.650085 
	C664.841736,378.041565 667.064514,379.087646 668.842834,380.432129 
	C683.898010,391.814636 700.430176,400.814392 716.979553,409.713806 
	C731.063171,417.287262 743.868530,426.477356 754.330505,438.497833 
	C763.420654,448.942078 770.368652,460.799774 775.345032,473.891602 
	C780.653137,487.856079 782.484741,502.468750 784.884521,517.009460 
	C785.100342,518.317322 785.083191,519.664490 785.160278,520.994202 
	C785.347046,524.215210 784.734985,527.019653 781.243286,528.244263 
	C777.514038,529.552124 774.629944,528.212769 772.654236,525.066345 
	C768.938599,519.148987 765.638367,512.960266 761.745728,507.166351 
	C748.750061,487.823334 734.203003,469.953949 713.387878,458.339874 
	C712.025330,457.579651 710.844055,456.043549 708.674744,456.874023 
	C708.019958,459.306030 709.971130,460.814331 711.089417,462.428436 
	C718.013611,472.423279 724.630249,482.626251 729.293762,493.874542 
	C735.652222,509.211090 740.729675,524.861450 743.517334,541.419067 
	C746.623779,559.870178 746.570984,578.290833 744.867615,596.605042 
	C743.524658,611.045410 739.740784,625.221130 734.180969,638.900208 
	C729.618591,650.125183 725.147705,661.385193 719.535278,672.094482 
	C711.884155,686.693726 702.765930,700.394165 692.112000,713.028870 
	C689.108948,716.590271 686.195923,720.230164 683.320801,723.896057 
	C681.593140,726.098877 679.742249,728.312500 676.704590,726.712158 
	C673.824890,725.195190 673.093506,722.223511 674.069031,719.341858 
	C675.873779,714.011047 678.036255,708.797119 680.157288,703.578247 
	C685.732483,689.860291 689.717346,675.769409 692.238098,661.115051 
	C693.616577,653.101379 695.035767,645.066284 696.270142,637.022583 
	C696.837769,633.323669 697.723938,629.267578 694.755493,625.241821 
	C690.957764,631.612366 689.080688,638.153320 686.902527,644.460022 
	C681.830994,659.144104 674.187683,672.593384 667.658813,686.577393 
	C656.088562,711.359314 640.464722,733.453003 622.556335,753.943604 
	C610.262878,768.009705 595.496948,778.995850 578.332947,786.594421 
	C577.424500,786.996582 576.436401,787.216492 575.491638,787.539307 
	C572.705566,788.491394 570.004517,788.103210 568.176025,785.881409 
	C566.199707,783.479919 567.155518,780.828491 568.797729,778.507263 
	C574.563293,770.358215 580.693420,762.444275 586.065125,754.044556 
	C595.276733,739.640564 604.828857,725.382141 610.865051,709.206726 
	C611.193542,708.326233 611.985352,707.456604 610.834229,705.921326 
	C606.514954,710.296448 602.187256,714.538757 598.018677,718.932190 
	C589.345459,728.073120 578.809875,734.757690 568.511414,741.806702 
	C556.343628,750.135132 542.985535,756.071716 529.352600,761.287109 
	C519.017212,765.240906 508.270294,768.021729 497.359222,770.323792 
	C474.443542,775.158569 451.282471,777.173096 428.017334,776.164795 
	C409.911804,775.380188 391.780762,774.706604 373.671661,773.327026 
	C352.460876,771.711121 331.199829,769.701599 309.871857,769.996948 
	C295.549744,770.195190 281.241852,768.703735 266.912811,769.900208 
	C253.813232,770.994141 240.966980,773.576477 228.053116,775.871704 
	C207.736282,779.482727 189.757309,788.782410 171.699692,798.019043 
	C167.938507,799.942932 163.943146,800.344849 160.404709,797.600342 
	C156.656952,794.693481 155.985092,790.535522 157.365646,786.281006 
	C162.242935,771.250488 168.067703,756.607361 176.147186,742.959290 
	C190.391815,718.896790 208.215469,697.958191 231.053665,681.667236 
	C248.467010,669.245972 267.090240,659.033630 288.184906,654.181458 
	C301.746613,651.062073 315.469452,648.769958 329.186371,646.419189 
	C340.298096,644.514832 351.223297,641.537598 362.319397,639.521667 
	C371.623108,637.831421 380.925049,636.173218 390.108856,633.927734 
	C400.702789,631.337646 411.297668,628.739502 421.831696,625.919128 
	C436.402985,622.017883 450.939087,617.980713 465.451996,613.866699 
	C487.968933,607.483887 510.386871,600.697266 530.297729,587.929382 
	C542.280212,580.245605 550.600708,569.014221 558.218201,557.149719 
	C564.494873,547.373657 568.606628,536.815002 571.316650,525.645386 
	C571.933228,523.103760 572.072937,520.321350 571.812561,517.711548 
	C569.466309,494.190521 559.253235,475.344696 538.788513,462.639099 
	C536.789978,461.398346 534.729309,461.259979 532.561035,461.361206 
	C515.946045,462.136749 499.511078,463.826630 483.283539,467.969025 
	C467.451385,472.010468 452.650177,477.889832 439.649384,487.865814 
	C428.930969,496.090424 421.266968,506.691864 414.484741,518.378601 
	C406.272491,532.529297 393.055328,539.535583 376.563721,538.851013 
	C352.760712,537.863037 337.723602,524.495605 328.717865,503.377960 
	C327.709900,501.014374 324.509094,498.366730 327.284515,495.723633 
	C330.002258,493.135406 333.096985,495.213165 336.083252,496.392303 
	C348.306366,501.218658 360.936249,503.529663 374.123962,501.897064 
	C376.191223,501.641205 378.011322,501.126251 379.332458,498.827301 
	C376.286224,495.310883 371.591614,493.208527 369.558350,488.635071 
	C368.776123,486.875580 366.755219,485.296021 368.167847,483.254791 
	C369.480896,481.357513 371.846130,481.538544 373.698914,482.236481 
	C389.640350,488.241608 402.215881,480.584747 413.300018,471.117218 
	C428.087677,458.486237 443.529510,447.197021 461.192657,439.000336 
	C463.677155,437.847351 466.536133,436.983856 468.095673,433.917542 
	C464.057861,430.493652 458.718231,430.071350 454.134003,429.593048 
	C441.088196,428.231934 428.141022,425.178101 414.875336,426.340607 
	C410.650238,426.710846 405.171234,425.175140 403.025848,429.619202 
	C400.531128,434.787018 403.715515,439.987427 406.480988,444.504150 
	C408.100403,447.149109 410.643921,449.234894 412.812256,451.534058 
	C413.742126,452.520020 414.849670,453.452606 414.236572,454.968781 
	C413.536957,456.698822 412.016846,456.476624 410.447540,456.529175 
	C397.772583,456.953644 386.240387,453.221924 375.316101,447.144623 
	C374.761566,446.836121 374.109467,446.702911 373.014038,446.315033 
	C370.980957,452.413483 374.894012,456.147980 377.851196,460.088501 
	C380.798035,464.015259 383.991974,467.756622 387.427368,472.012634 
	C381.474609,475.271851 375.986450,473.480621 370.809052,472.645050 
	C361.409637,471.128143 352.444366,468.055847 344.429352,462.675232 
	C343.182800,461.838379 341.886688,460.763519 340.360046,461.876892 
	C338.931427,462.918762 339.276825,464.582092 339.433838,466.045258 
	C340.196991,473.156586 341.669891,480.105316 344.139160,486.842773 
	C344.699615,488.371918 345.092285,490.103577 344.986206,491.703827 
	C344.815247,494.283051 343.554382,495.568573 340.607056,494.591248 
	C327.460449,490.231842 315.637604,483.528290 305.717468,473.914032 
	C297.970825,466.406250 290.597626,458.524963 284.262115,449.662170 
	C272.871735,433.728058 280.607056,418.017853 295.577057,412.548798 
	C312.123718,406.503723 328.568176,400.317627 343.771088,391.338562 
	C367.310822,377.435608 388.394287,360.614410 404.962341,338.592712 
	C418.833099,320.156158 436.434631,306.424683 456.849213,295.735657 
	C477.880157,284.723907 495.365448,269.237854 510.211121,250.631775 
	C525.623047,231.316010 539.363831,210.988815 550.259827,188.779770 
	C550.988464,187.294601 552.087219,185.993942 552.855530,184.524658 
	C554.482605,181.413010 557.094849,180.441132 560.374329,180.922470 
	C563.595459,181.395248 565.193237,183.742432 566.115540,186.509644 
	C574.462463,211.553955 577.250122,237.325134 576.205811,263.613922 
	C575.922363,270.750397 576.106628,270.732880 583.405762,270.742493 
	C595.071777,270.757812 606.746155,270.547272 618.401550,270.917480 
	C631.023743,271.318390 643.538574,273.097626 656.083618,274.552490 
	C669.794739,276.142548 683.302673,278.861206 696.911499,280.989960 
	C707.900818,282.708954 718.772583,285.014587 729.850952,286.411560 
	C740.007996,287.692352 750.092590,287.828827 760.708923,287.870880 
M468.240723,344.690399 
	C468.654327,343.425995 469.177551,342.185516 469.459412,340.892395 
	C470.104218,337.933990 470.789764,334.869293 467.791138,332.686340 
	C464.577728,330.347107 462.272400,332.940155 460.377838,334.702545 
	C451.741547,342.736389 443.282959,350.964081 434.878326,359.241760 
	C433.153564,360.940491 431.315887,362.962830 433.528320,365.749115 
	C435.584290,368.338379 437.775146,367.622192 440.175873,366.407654 
	C445.651031,363.637726 450.996338,360.499512 456.707245,358.337128 
	C462.991272,355.957672 466.224121,351.480530 468.240723,344.690399 
z"/>
</svg>