

<svg xmlns="http://www.w3.org/2000/svg" fill = "none" viewBox="0 0 394 80">

<path  fill="#000" d="M5843 8868 c-12 -13 -37 -52 -55 -88 -94 -179 -172 -310 -190 -318
-5 -2 -8 -7 -8 -12 0 -5 -37 -60 -82 -123 -240 -332 -417 -492 -763 -690 -210
-119 -310 -203 -451 -377 -16 -19 -33 -40 -39 -47 -5 -6 -32 -39 -60 -74 -92
-115 -290 -288 -450 -394 -143 -94 -410 -225 -530 -260 -86 -26 -142 -51 -186
-86 -42 -33 -89 -121 -89 -166 0 -81 95 -226 247 -374 82 -81 196 -169 218
-169 3 0 22 -11 43 -23 44 -28 153 -67 165 -60 10 6 7 20 -18 103 -41 137 -57
270 -32 270 7 0 29 -11 49 -25 59 -40 151 -85 173 -85 12 0 25 -4 31 -9 11
-12 203 -41 221 -34 21 8 16 19 -32 73 -25 28 -56 68 -70 88 -54 84 -56 166
-2 132 49 -31 105 -57 162 -74 33 -10 67 -22 76 -26 24 -12 172 -16 176 -5 1
6 -19 34 -46 63 -50 54 -81 126 -81 186 0 59 -2 59 226 53 288 -8 514 -46 514
-87 0 -6 -50 -35 -111 -66 -98 -49 -285 -157 -299 -173 -3 -4 -30 -25 -60 -48
-30 -23 -71 -56 -90 -74 -80 -72 -119 -99 -194 -134 -98 -45 -180 -55 -254
-31 -28 10 -56 15 -62 11 -14 -9 -12 -43 3 -52 8 -4 16 -16 20 -25 3 -9 23
-28 44 -41 62 -39 69 -53 38 -73 -33 -21 -197 -31 -270 -16 -27 6 -71 15 -96
21 -25 5 -71 21 -101 34 -71 32 -86 24 -69 -33 34 -115 126 -237 225 -298 126
-77 170 -92 282 -92 78 0 105 4 161 27 38 14 79 34 93 42 54 34 120 109 155
176 49 92 71 121 168 216 142 140 299 221 557 289 128 34 332 60 468 60 l103
0 73 -54 c97 -72 153 -142 219 -277 55 -111 83 -297 57 -382 -29 -98 -45 -143
-52 -152 -4 -5 -8 -16 -8 -25 0 -8 -18 -43 -40 -78 -22 -34 -40 -65 -40 -67 0
-11 -87 -128 -140 -188 -40 -46 -150 -132 -215 -168 -156 -86 -267 -131 -485
-195 -30 -9 -64 -20 -75 -25 -11 -4 -38 -12 -60 -17 -22 -6 -83 -22 -135 -37
-52 -14 -135 -37 -185 -50 -49 -13 -144 -38 -210 -55 -66 -18 -136 -36 -155
-40 -19 -5 -71 -17 -115 -29 -88 -22 -270 -59 -352 -71 -28 -5 -56 -11 -61
-14 -5 -3 -38 -10 -73 -16 -35 -5 -98 -17 -139 -25 -41 -8 -102 -20 -135 -25
-76 -13 -198 -36 -250 -48 -108 -25 -148 -37 -250 -75 -99 -37 -135 -54 -200
-94 -11 -7 -40 -24 -65 -39 -71 -42 -173 -111 -200 -136 -14 -13 -50 -42 -80
-64 -57 -43 -81 -66 -152 -148 -24 -28 -60 -68 -81 -90 -89 -97 -306 -453
-337 -556 -5 -14 -24 -70 -44 -125 -39 -107 -40 -134 -4 -173 36 -38 73 -29
255 61 93 45 202 93 243 105 41 13 84 27 95 32 11 4 56 15 100 24 44 9 100 21
125 26 25 6 94 17 154 25 212 29 895 16 1401 -27 188 -16 838 -17 930 -1 39 7
99 17 135 24 36 6 88 15 115 19 92 15 367 101 389 121 6 5 16 9 23 9 15 0 202
90 254 122 20 13 65 41 100 62 107 67 230 164 317 253 45 46 82 88 82 93 0 5
9 14 21 21 82 43 11 -133 -170 -421 -36 -58 -74 -120 -86 -138 -11 -18 -41
-60 -67 -95 -107 -143 -120 -165 -113 -186 11 -36 48 -36 127 0 40 18 87 43
105 56 17 13 34 23 38 23 15 0 165 119 224 179 120 120 284 334 428 557 21 32
280 558 286 579 3 11 17 52 32 90 15 39 39 103 53 143 19 50 32 72 42 70 12
-3 15 -23 14 -113 0 -108 -9 -182 -37 -320 -8 -38 -18 -86 -22 -105 -4 -19
-13 -55 -21 -80 -37 -120 -66 -208 -78 -235 -8 -16 -19 -41 -24 -55 -6 -14
-18 -41 -27 -62 -20 -44 -16 -97 8 -112 19 -12 39 5 107 94 19 25 37 47 40 50
23 21 137 177 192 263 113 175 262 507 306 682 6 22 17 67 26 100 8 33 18 83
20 110 3 28 11 91 17 140 13 100 6 393 -10 465 -5 25 -17 81 -26 125 -27 134
-36 167 -67 245 -17 41 -34 84 -38 95 -4 11 -15 37 -24 58 -9 21 -16 42 -16
47 0 5 -29 57 -65 115 -36 57 -65 107 -65 110 0 3 -20 34 -45 71 -62 90 -49
107 44 56 134 -74 297 -231 431 -417 72 -98 170 -250 170 -263 1 -18 42 -53
68 -58 25 -5 33 -2 48 21 16 24 16 34 6 96 -7 38 -12 85 -12 105 0 56 -49 254
-90 359 -76 198 -223 391 -399 524 -82 61 -108 77 -296 181 -33 18 -64 36 -70
40 -5 4 -37 22 -70 40 -53 29 -133 80 -309 200 -96 66 -52 82 94 35 41 -14
129 -43 196 -64 66 -22 154 -50 195 -61 97 -28 123 -36 189 -56 123 -36 393
-73 540 -74 137 0 377 36 405 61 5 5 18 9 28 9 19 0 247 105 257 119 3 3 22
17 43 31 39 26 57 64 39 82 -7 7 -102 11 -269 12 -238 2 -345 10 -443 35 -19
5 -69 17 -110 26 -41 9 -84 20 -95 24 -11 5 -47 16 -80 26 -84 25 -211 69
-300 106 -20 8 -83 34 -120 49 -11 5 -42 18 -70 30 -146 62 -152 64 -310 113
-174 54 -454 125 -558 142 -29 5 -37 10 -35 23 6 30 242 20 418 -17 25 -6 81
-17 125 -26 44 -10 96 -21 115 -25 43 -10 182 -38 230 -45 19 -3 105 -13 190
-22 133 -14 176 -15 305 -4 83 6 164 16 180 21 17 5 66 18 110 29 178 43 336
106 472 187 125 76 232 147 248 166 105 122 167 205 198 268 62 126 86 223 64
254 -21 29 -61 13 -126 -48 -98 -93 -201 -162 -380 -256 -126 -66 -424 -151
-626 -179 -190 -26 -461 -8 -755 49 -25 5 -88 17 -140 25 -52 9 -118 21 -147
26 -193 37 -692 74 -884 66 -69 -3 -130 -2 -135 1 -6 4 -10 87 -10 202 0 232
-20 395 -69 560 -9 30 -22 73 -27 95 -13 49 -44 85 -73 85 -12 0 -31 -10 -42
-22z m-898 -1568 c22 -25 16 -92 -15 -165 -21 -49 -65 -105 -83 -105 -4 0 -54
-22 -111 -50 -123 -60 -156 -68 -179 -45 -37 36 -22 64 86 170 181 179 224
215 255 215 16 0 37 -9 47 -20z"/>

</svg>
